<svg width="17" height="18" viewBox="0 0 17 18" fill="none" xmlns="http://www.w3.org/2000/svg">
<path fill-rule="evenodd" clip-rule="evenodd" d="M8.05988 3.72773C5.44576 3.91073 3.38191 6.08935 3.38191 8.75C3.38191 11.5306 5.63603 13.7847 8.41663 13.7847C10.6443 13.7847 12.5345 12.3376 13.1978 10.3324C12.6873 10.5433 12.1278 10.6597 11.5416 10.6597C9.14456 10.6597 7.20135 8.71652 7.20135 6.31945C7.20135 5.34782 7.52088 4.45076 8.05988 3.72773ZM2.34024 8.75C2.34024 5.39411 5.06073 2.67361 8.41663 2.67361C8.72886 2.67361 9.03592 2.69721 9.33604 2.74279C9.54365 2.77433 9.71202 2.92746 9.76305 3.13116C9.81408 3.33486 9.73779 3.54928 9.56956 3.67496C8.76332 4.27733 8.24302 5.23756 8.24302 6.31945C8.24302 8.14122 9.71986 9.61806 11.5416 9.61806C12.3293 9.61806 13.0512 9.34264 13.6184 8.88239C13.7814 8.75014 14.0078 8.72864 14.1928 8.82785C14.3777 8.92706 14.4851 9.1276 14.465 9.33653C14.1696 12.4175 11.5748 14.8264 8.41663 14.8264C5.06073 14.8264 2.34024 12.1059 2.34024 8.75Z" fill="#24272C"/>
</svg>
