<svg width="18" height="18" viewBox="0 0 18 18" fill="none" xmlns="http://www.w3.org/2000/svg">
<path d="M8.83332 1.53473C9.12097 1.53473 9.35415 1.76791 9.35415 2.05556V2.75001C9.35415 3.03766 9.12097 3.27084 8.83332 3.27084C8.54567 3.27084 8.31249 3.03766 8.31249 2.75001V2.05556C8.31249 1.76791 8.54567 1.53473 8.83332 1.53473Z" fill="#E9EAF0"/>
<path fill-rule="evenodd" clip-rule="evenodd" d="M4.84026 9.00001C4.84026 6.7947 6.62802 5.00695 8.83332 5.00695C11.0386 5.00695 12.8264 6.7947 12.8264 9.00001C12.8264 11.2053 11.0386 12.9931 8.83332 12.9931C6.62802 12.9931 4.84026 11.2053 4.84026 9.00001ZM8.83332 6.04862C7.20331 6.04862 5.88193 7.37 5.88193 9.00001C5.88193 10.63 7.20331 11.9514 8.83332 11.9514C10.4633 11.9514 11.7847 10.63 11.7847 9.00001C11.7847 7.37 10.4633 6.04862 8.83332 6.04862Z" fill="#E9EAF0"/>
<path d="M4.29115 3.72127C4.08775 3.51788 3.75798 3.51788 3.55458 3.72127C3.35118 3.92467 3.35118 4.25445 3.55458 4.45784L4.04563 4.94889C4.24903 5.15229 4.5788 5.15229 4.7822 4.94889C4.98559 4.74549 4.98559 4.41572 4.7822 4.21232L4.29115 3.72127Z" fill="#E9EAF0"/>
<path d="M16.2986 9.00001C16.2986 9.28765 16.0654 9.52084 15.7778 9.52084H15.0833C14.7957 9.52084 14.5625 9.28765 14.5625 9.00001C14.5625 8.71236 14.7957 8.47917 15.0833 8.47917H15.7778C16.0654 8.47917 16.2986 8.71236 16.2986 9.00001Z" fill="#E9EAF0"/>
<path d="M14.1121 4.45784C14.3154 4.25444 14.3154 3.92467 14.1121 3.72127C13.9087 3.51787 13.5789 3.51787 13.3755 3.72127L12.8844 4.21231C12.681 4.41571 12.681 4.74549 12.8844 4.94888C13.0878 5.15228 13.4176 5.15228 13.621 4.94888L14.1121 4.45784Z" fill="#E9EAF0"/>
<path d="M8.83332 14.7292C9.12097 14.7292 9.35415 14.9624 9.35415 15.25V15.9445C9.35415 16.2321 9.12097 16.4653 8.83332 16.4653C8.54567 16.4653 8.31249 16.2321 8.31249 15.9445V15.25C8.31249 14.9624 8.54567 14.7292 8.83332 14.7292Z" fill="#E9EAF0"/>
<path d="M13.6211 13.0511C13.4177 12.8477 13.0879 12.8477 12.8845 13.0511C12.6811 13.2545 12.6811 13.5843 12.8845 13.7877L13.3755 14.2787C13.5789 14.4821 13.9087 14.4821 14.1121 14.2787C14.3155 14.0754 14.3155 13.7456 14.1121 13.5422L13.6211 13.0511Z" fill="#E9EAF0"/>
<path d="M3.10415 9.00001C3.10415 9.28765 2.87097 9.52084 2.58332 9.52084H1.88888C1.60123 9.52084 1.36804 9.28765 1.36804 9.00001C1.36804 8.71236 1.60123 8.47917 1.88888 8.47917H2.58332C2.87097 8.47917 3.10415 8.71236 3.10415 9.00001Z" fill="#E9EAF0"/>
<path d="M4.78215 13.7877C4.98555 13.5843 4.98555 13.2545 4.78215 13.0511C4.57875 12.8477 4.24898 12.8477 4.04558 13.0511L3.55453 13.5422C3.35114 13.7456 3.35114 14.0753 3.55453 14.2787C3.75793 14.4821 4.08771 14.4821 4.2911 14.2787L4.78215 13.7877Z" fill="#E9EAF0"/>
</svg>
