<svg width="78" height="16" viewBox="0 0 78 16" fill="none" xmlns="http://www.w3.org/2000/svg">
<path fill-rule="evenodd" clip-rule="evenodd" d="M47.251 15.7635H50.9948V3.94089H47.251V15.7635ZM47.1524 2.75862H51.0933V0H47.1524V2.75862ZM29.5599 9.85222C29.5599 6.97537 29.3432 6.6601 27.3136 6.6601C25.2841 6.6601 25.0673 6.97537 25.0673 9.85222C25.0673 12.7291 25.2841 13.0443 27.3136 13.0443C29.3432 13.0443 29.5599 12.7291 29.5599 9.85222ZM27.3136 16C22.3678 16 21.1264 14.7783 21.1264 9.85222C21.1264 4.92611 22.3678 3.70443 27.3136 3.70443C32.2594 3.70443 33.5008 4.92611 33.5008 9.85222C33.5008 14.7783 32.2594 16 27.3136 16ZM42.7319 3.94089H46.456L42.8501 15.7635H37.0767L33.8058 3.94089H37.6875L40.0324 13.0049H40.1506L42.7319 3.94089ZM60.252 12H64.1929C64.1141 15.1921 62.9318 16 58.2816 16C53.4737 16 52.2717 14.7783 52.2717 9.85222C52.2717 4.92611 53.4737 3.70443 58.2816 3.70443C62.9516 3.70443 64.1929 4.78818 64.2915 9.08374V10.9163H56.2323C56.3112 12.9852 56.6855 13.2414 58.3013 13.2414C59.858 13.2414 60.252 12.9852 60.252 12ZM58.3013 6.46305C56.8432 6.46305 56.39 6.6601 56.252 8.15764H60.3506C60.3112 6.64039 60.0353 6.46305 58.3013 6.46305ZM68.9483 12.0591V11.803H65.2044V12.0591C65.2044 15.2118 66.4261 16 71.2734 16C76.0419 16 77.2438 15.33 77.2438 12.6108C77.2438 9.99015 76.0025 9.12315 71.0566 8.31527C69.7561 8.11823 69.4212 7.94089 69.4212 7.38916C69.4212 6.56158 69.5985 6.46305 71.2734 6.46305C73.0074 6.46305 73.2044 6.58128 73.2044 7.70443V8.05911H76.9483V7.70443C76.9483 4.51232 75.8054 3.70443 71.2734 3.70443C66.6428 3.70443 65.4803 4.41379 65.4803 7.27094C65.4803 9.53695 66.4852 10.2857 70.5049 11.0739C72.7512 11.4877 73.3029 11.7438 73.3029 12.335C73.3029 13.1429 73.0862 13.2414 71.1749 13.2414C69.165 13.2414 68.9483 13.1232 68.9483 12.0591ZM6.96294 15.7635L4.65752 4.33497V0.394088H7.88905L10.1945 11.8227H10.3521L12.6772 0.394088H19.9482V15.7635H15.8102V4.33497H15.692L13.3669 15.7635H6.96294ZM0 0.392189H1.37798V1.03291H2.75586V0.392284H4.13384V1.03291H4.13395V2.31381H4.13384V3.59502H4.13395V4.87592H4.13384V6.1583H4.13395V7.43921H4.13384V8.71963H4.13395V10.0005H4.13384V11.2821H4.13395V12.563H4.13384V13.8446H4.13395V15.1255H4.13384V15.7663H2.75586V15.1255H1.37798V15.7662H0V15.1255V13.8446V12.563V11.2821V10.0005V8.71963V7.43921V6.1583V4.87592V3.59502V2.31381V1.03291V0.392189ZM1.37798 3.59502V2.31381H2.75586V3.59502H1.37798ZM1.37798 4.87592V6.1583H2.75586V4.87592H1.37798ZM1.37798 8.71963V7.43921H2.75586V8.71963H1.37798ZM1.37798 10.0005V11.2821H2.75586V10.0005H1.37798ZM1.37798 13.8446V12.563H2.75586V13.8446H1.37798Z" fill="white"/>
</svg>
